{
    "asset": {
        "copyright": "2024 (c) Adobe Inc.",
        "generator": "Adobe Substance 3D Stager - 88785c0883effdd7c2e1a315aeda4f3d564726db",
        "version": "2.0"
    },
    "accessors": [
        {
            "bufferView": 0,
            "componentType": 5126,
            "count": 124,
            "type": "VEC3",
            "max": [
                1.0,
                1.0,
                1.0
            ],
            "min": [
                -1.0,
                -1.0,
                -1.0
            ]
        },
        {
            "bufferView": 1,
            "componentType": 5126,
            "count": 124,
            "type": "VEC3"
        },
        {
            "bufferView": 2,
            "componentType": 5126,
            "count": 124,
            "type": "VEC4"
        },
        {
            "bufferView": 3,
            "componentType": 5126,
            "count": 124,
            "type": "VEC2"
        },
        {
            "bufferView": 4,
            "componentType": 5125,
            "count": 612,
            "type": "SCALAR",
            "max": [
                123.0
            ],
            "min": [
                0.0
            ]
        },
        {
            "bufferView": 5,
            "componentType": 5126,
            "count": 258,
            "type": "VEC3",
            "max": [
                1.0,
                1.0,
                1.0
            ],
            "min": [
                -1.0,
                -1.0,
                -1.0
            ]
        },
        {
            "bufferView": 6,
            "componentType": 5126,
            "count": 258,
            "type": "VEC3"
        },
        {
            "bufferView": 7,
            "componentType": 5126,
            "count": 258,
            "type": "VEC4"
        },
        {
            "bufferView": 8,
            "componentType": 5126,
            "count": 258,
            "type": "VEC2"
        },
        {
            "bufferView": 9,
            "componentType": 5125,
            "count": 1140,
            "type": "SCALAR",
            "max": [
                257.0
            ],
            "min": [
                0.0
            ]
        },
        {
            "bufferView": 10,
            "componentType": 5126,
            "count": 129,
            "type": "VEC3",
            "max": [
                0.9829831719398499,
                1.0,
                0.9829831719398499
            ],
            "min": [
                -0.9829831719398499,
                -1.0,
                -0.9829831719398499
            ]
        },
        {
            "bufferView": 11,
            "componentType": 5126,
            "count": 129,
            "type": "VEC3"
        },
        {
            "bufferView": 12,
            "componentType": 5126,
            "count": 129,
            "type": "VEC4"
        },
        {
            "bufferView": 13,
            "componentType": 5126,
            "count": 129,
            "type": "VEC2"
        },
        {
            "bufferView": 14,
            "componentType": 5125,
            "count": 570,
            "type": "SCALAR",
            "max": [
                128.0
            ],
            "min": [
                0.0
            ]
        },
        {
            "bufferView": 15,
            "componentType": 5126,
            "count": 164,
            "type": "VEC3",
            "max": [
                0.8906729817390442,
                0.9929510951042175,
                0.8485497832298279
            ],
            "min": [
                -0.8906729817390442,
                -0.9929513335227966,
                -0.8485497832298279
            ]
        },
        {
            "bufferView": 16,
            "componentType": 5126,
            "count": 164,
            "type": "VEC3"
        },
        {
            "bufferView": 17,
            "componentType": 5126,
            "count": 164,
            "type": "VEC4"
        },
        {
            "bufferView": 18,
            "componentType": 5126,
            "count": 164,
            "type": "VEC2"
        },
        {
            "bufferView": 19,
            "componentType": 5125,
            "count": 780,
            "type": "SCALAR",
            "max": [
                163.0
            ],
            "min": [
                0.0
            ]
        },
        {
            "bufferView": 20,
            "componentType": 5126,
            "count": 637,
            "type": "VEC3",
            "max": [
                1.339999794960022,
                0.3799999952316284,
                1.339999794960022
            ],
            "min": [
                -1.339999794960022,
                -0.3799999952316284,
                -1.339999794960022
            ]
        },
        {
            "bufferView": 21,
            "componentType": 5126,
            "count": 637,
            "type": "VEC3"
        },
        {
            "bufferView": 22,
            "componentType": 5126,
            "count": 637,
            "type": "VEC4"
        },
        {
            "bufferView": 23,
            "componentType": 5126,
            "count": 637,
            "type": "VEC2"
        },
        {
            "bufferView": 24,
            "componentType": 5125,
            "count": 3456,
            "type": "SCALAR",
            "max": [
                636.0
            ],
            "min": [
                0.0
            ]
        },
        {
            "bufferView": 25,
            "componentType": 5126,
            "count": 4108,
            "type": "VEC3",
            "max": [
                2.2228732109069826,
                2.597832679748535,
                12.82196044921875
            ],
            "min": [
                -2.965155839920044,
                -2.6586718559265138,
                -17.280733108520509
            ]
        },
        {
            "bufferView": 26,
            "componentType": 5126,
            "count": 4108,
            "type": "VEC3"
        },
        {
            "bufferView": 27,
            "componentType": 5126,
            "count": 4108,
            "type": "VEC4"
        },
        {
            "bufferView": 28,
            "componentType": 5126,
            "count": 4108,
            "type": "VEC2"
        },
        {
            "bufferView": 29,
            "componentType": 5125,
            "count": 22392,
            "type": "SCALAR",
            "max": [
                4107.0
            ],
            "min": [
                0.0
            ]
        },
        {
            "bufferView": 30,
            "componentType": 5126,
            "count": 1966,
            "type": "VEC3",
            "max": [
                1.3671875,
                0.984375,
                0.8515625
            ],
            "min": [
                -1.3671875,
                -0.984375,
                -0.8515625
            ]
        },
        {
            "bufferView": 31,
            "componentType": 5126,
            "count": 1966,
            "type": "VEC3"
        },
        {
            "bufferView": 32,
            "componentType": 5126,
            "count": 1966,
            "type": "VEC4"
        },
        {
            "bufferView": 33,
            "componentType": 5126,
            "count": 1966,
            "type": "VEC2"
        },
        {
            "bufferView": 34,
            "componentType": 5125,
            "count": 2904,
            "type": "SCALAR",
            "max": [
                1965.0
            ],
            "min": [
                0.0
            ]
        }
    ],
    "bufferViews": [
        {
            "buffer": 0,
            "byteOffset": 0,
            "byteLength": 1488,
            "target": 34962
        },
        {
            "buffer": 0,
            "byteOffset": 1488,
            "byteLength": 1488,
            "target": 34962
        },
        {
            "buffer": 0,
            "byteOffset": 2976,
            "byteLength": 1984,
            "target": 34962
        },
        {
            "buffer": 0,
            "byteOffset": 4960,
            "byteLength": 992,
            "target": 34962
        },
        {
            "buffer": 0,
            "byteOffset": 5952,
            "byteLength": 2448,
            "target": 34963
        },
        {
            "buffer": 0,
            "byteOffset": 8400,
            "byteLength": 3096,
            "target": 34962
        },
        {
            "buffer": 0,
            "byteOffset": 11496,
            "byteLength": 3096,
            "target": 34962
        },
        {
            "buffer": 0,
            "byteOffset": 14592,
            "byteLength": 4128,
            "target": 34962
        },
        {
            "buffer": 0,
            "byteOffset": 18720,
            "byteLength": 2064,
            "target": 34962
        },
        {
            "buffer": 0,
            "byteOffset": 20784,
            "byteLength": 4560,
            "target": 34963
        },
        {
            "buffer": 0,
            "byteOffset": 25344,
            "byteLength": 1548,
            "target": 34962
        },
        {
            "buffer": 0,
            "byteOffset": 26892,
            "byteLength": 1548,
            "target": 34962
        },
        {
            "buffer": 0,
            "byteOffset": 28440,
            "byteLength": 2064,
            "target": 34962
        },
        {
            "buffer": 0,
            "byteOffset": 30504,
            "byteLength": 1032,
            "target": 34962
        },
        {
            "buffer": 0,
            "byteOffset": 31536,
            "byteLength": 2280,
            "target": 34963
        },
        {
            "buffer": 0,
            "byteOffset": 33816,
            "byteLength": 1968,
            "target": 34962
        },
        {
            "buffer": 0,
            "byteOffset": 35784,
            "byteLength": 1968,
            "target": 34962
        },
        {
            "buffer": 0,
            "byteOffset": 37752,
            "byteLength": 2624,
            "target": 34962
        },
        {
            "buffer": 0,
            "byteOffset": 40376,
            "byteLength": 1312,
            "target": 34962
        },
        {
            "buffer": 0,
            "byteOffset": 41688,
            "byteLength": 3120,
            "target": 34963
        },
        {
            "buffer": 0,
            "byteOffset": 44808,
            "byteLength": 7644,
            "target": 34962
        },
        {
            "buffer": 0,
            "byteOffset": 52452,
            "byteLength": 7644,
            "target": 34962
        },
        {
            "buffer": 0,
            "byteOffset": 60096,
            "byteLength": 10192,
            "target": 34962
        },
        {
            "buffer": 0,
            "byteOffset": 70288,
            "byteLength": 5096,
            "target": 34962
        },
        {
            "buffer": 0,
            "byteOffset": 75384,
            "byteLength": 13824,
            "target": 34963
        },
        {
            "buffer": 0,
            "byteOffset": 89208,
            "byteLength": 49296,
            "target": 34962
        },
        {
            "buffer": 0,
            "byteOffset": 138504,
            "byteLength": 49296,
            "target": 34962
        },
        {
            "buffer": 0,
            "byteOffset": 187800,
            "byteLength": 65728,
            "target": 34962
        },
        {
            "buffer": 0,
            "byteOffset": 253528,
            "byteLength": 32864,
            "target": 34962
        },
        {
            "buffer": 0,
            "byteOffset": 286392,
            "byteLength": 89568,
            "target": 34963
        },
        {
            "buffer": 0,
            "byteOffset": 375960,
            "byteLength": 23592,
            "target": 34962
        },
        {
            "buffer": 0,
            "byteOffset": 399552,
            "byteLength": 23592,
            "target": 34962
        },
        {
            "buffer": 0,
            "byteOffset": 423144,
            "byteLength": 31456,
            "target": 34962
        },
        {
            "buffer": 0,
            "byteOffset": 454600,
            "byteLength": 15728,
            "target": 34962
        },
        {
            "buffer": 0,
            "byteOffset": 470328,
            "byteLength": 11616,
            "target": 34963
        }
    ],
    "buffers": [
        {
            "byteLength": 481944,
            "uri": "scene_binary.bin"
        }
    ],
    "images": [
        {
            "name": "Material_BaseColor",
            "uri": "scene_images/Material_BaseColor.jpg",
            "mimeType": "image/jpeg"
        },
        {
            "name": "sampler",
            "uri": "scene_images/sampler.png",
            "mimeType": "image/png"
        }
    ],
    "materials": [
        {
            "pbrMetallicRoughness": {
                "baseColorTexture": {
                    "index": 0
                },
                "metallicFactor": 0.0,
                "metallicRoughnessTexture": {
                    "index": 1
                }
            },
            "name": "Material",
            "doubleSided": true
        }
    ],
    "meshes": [
        {
            "name": "Cube",
            "primitives": [
                {
                    "attributes": {
                        "TANGENT": 2,
                        "NORMAL": 1,
                        "POSITION": 0,
                        "TEXCOORD_0": 3
                    },
                    "indices": 4,
                    "material": 0
                }
            ]
        },
        {
            "name": "Cylinder",
            "primitives": [
                {
                    "attributes": {
                        "POSITION": 5,
                        "NORMAL": 6,
                        "TANGENT": 7,
                        "TEXCOORD_0": 8
                    },
                    "indices": 9,
                    "material": 0
                }
            ]
        },
        {
            "name": "Cone",
            "primitives": [
                {
                    "attributes": {
                        "TANGENT": 12,
                        "NORMAL": 11,
                        "POSITION": 10,
                        "TEXCOORD_0": 13
                    },
                    "indices": 14,
                    "material": 0
                }
            ]
        },
        {
            "name": "Icosphere",
            "primitives": [
                {
                    "attributes": {
                        "POSITION": 15,
                        "NORMAL": 16,
                        "TANGENT": 17,
                        "TEXCOORD_0": 18
                    },
                    "indices": 19,
                    "material": 0
                }
            ]
        },
        {
            "name": "Torus-252E001",
            "primitives": [
                {
                    "attributes": {
                        "TANGENT": 22,
                        "NORMAL": 21,
                        "POSITION": 20,
                        "TEXCOORD_0": 23
                    },
                    "indices": 24,
                    "material": 0
                }
            ]
        },
        {
            "name": "NurbsPath",
            "primitives": [
                {
                    "attributes": {
                        "TANGENT": 27,
                        "NORMAL": 26,
                        "POSITION": 25,
                        "TEXCOORD_0": 28
                    },
                    "indices": 29,
                    "material": 0
                }
            ]
        },
        {
            "name": "Suzanne",
            "primitives": [
                {
                    "attributes": {
                        "POSITION": 30,
                        "NORMAL": 31,
                        "TANGENT": 32,
                        "TEXCOORD_0": 33
                    },
                    "indices": 34,
                    "material": 0
                }
            ]
        }
    ],
    "nodes": [
        {
            "name": "working_cam_n3d"
        },
        {
            "children": [
                2,
                3,
                4,
                5,
                6,
                7,
                8
            ],
            "name": "Scène"
        },
        {
            "translation": [
                0.745707631111145,
                2.918491840362549,
                -2.517087459564209
            ],
            "rotation": [
                -0.5635838508605957,
                0.4348698854446411,
                -0.06975343078374863,
                0.6988532543182373
            ],
            "scale": [
                1.0,
                1.0000001192092896,
                1.0000001192092896
            ],
            "mesh": 0,
            "name": "Cube"
        },
        {
            "translation": [
                1.490174651145935,
                5.680624961853027,
                -2.202909469604492
            ],
            "rotation": [
                -0.47079673409461977,
                -0.198770210146904,
                0.037244364619255069,
                0.8587512373924255
            ],
            "mesh": 1,
            "name": "Cylinder"
        },
        {
            "translation": [
                -0.5115458369255066,
                0.02168467454612255,
                -2.8033556938171388
            ],
            "rotation": [
                -0.4477404057979584,
                -0.1226688101887703,
                -0.02785954438149929,
                0.8852710127830505
            ],
            "scale": [
                1.2000000476837159,
                1.2000001668930054,
                1.2000001668930054
            ],
            "mesh": 2,
            "name": "Cone"
        },
        {
            "translation": [
                -0.8491089344024658,
                -3.306852340698242,
                -3.204820156097412
            ],
            "rotation": [
                -0.7424426078796387,
                -0.10546015202999115,
                -0.2569352984428406,
                0.6096240282058716
            ],
            "scale": [
                1.3200000524520875,
                1.3200000524520875,
                1.3200002908706666
            ],
            "mesh": 3,
            "name": "Icosphere"
        },
        {
            "translation": [
                -1.497380018234253,
                -5.89124059677124,
                -3.3858754634857179
            ],
            "rotation": [
                0.8662386536598206,
                -0.00426374701783061,
                0.3443237841129303,
                -0.36201316118240359
            ],
            "scale": [
                1.0,
                1.0000001192092896,
                1.0
            ],
            "mesh": 4,
            "name": "Torus%2E001"
        },
        {
            "translation": [
                0.5747435092926025,
                0.9006557464599609,
                -2.8389787673950197
            ],
            "rotation": [
                -0.6621521711349487,
                -0.03384729474782944,
                -0.2191733568906784,
                0.7158015966415405
            ],
            "mesh": 5,
            "name": "NurbsPath"
        },
        {
            "translation": [
                -0.2546550929546356,
                2.167022466659546,
                -2.7308664321899416
            ],
            "rotation": [
                -0.14426200091838838,
                -0.452281653881073,
                -0.3195990025997162,
                0.8200525641441345
            ],
            "scale": [
                0.05022530257701874,
                0.05022529512643814,
                0.05022530257701874
            ],
            "mesh": 6,
            "name": "Suzanne"
        }
    ],
    "samplers": [
        {}
    ],
    "scenes": [
        {
            "nodes": [
                1
            ],
            "name": "scene"
        }
    ],
    "textures": [
        {
            "name": "tmp_image_pie_338a_0725_f720",
            "sampler": 0,
            "source": 0
        },
        {
            "name": "sampler",
            "sampler": 0,
            "source": 1
        }
    ],
    "scene": 0
}